<?xml version="1.0" encoding="UTF-8" ?>
<svg version="1.1" width="128" height="128" xmlns="http://www.w3.org/2000/svg" shape-rendering="crispEdges">
<rect x="72" y="52" width="4" height="4" fill="#90625D" />
<rect x="76" y="52" width="4" height="4" fill="#90625D" />
<rect x="88" y="52" width="4" height="4" fill="#90625D" />
<rect x="92" y="52" width="4" height="4" fill="#90625D" />
<rect x="68" y="56" width="4" height="4" fill="#90625D" />
<rect x="72" y="56" width="4" height="4" fill="#F3E5C2" />
<rect x="76" y="56" width="4" height="4" fill="#90625D" />
<rect x="88" y="56" width="4" height="4" fill="#90625D" />
<rect x="92" y="56" width="4" height="4" fill="#F3E5C2" />
<rect x="96" y="56" width="4" height="4" fill="#90625D" />
<rect x="56" y="60" width="4" height="4" fill="#90625D" />
<rect x="60" y="60" width="4" height="4" fill="#90625D" />
<rect x="68" y="60" width="4" height="4" fill="#90625D" />
<rect x="72" y="60" width="4" height="4" fill="#F3E5C2" />
<rect x="76" y="60" width="4" height="4" fill="#90625D" />
<rect x="80" y="60" width="4" height="4" fill="#90625D" />
<rect x="84" y="60" width="4" height="4" fill="#90625D" />
<rect x="88" y="60" width="4" height="4" fill="#90625D" />
<rect x="92" y="60" width="4" height="4" fill="#F3E5C2" />
<rect x="96" y="60" width="4" height="4" fill="#90625D" />
<rect x="108" y="60" width="4" height="4" fill="#90625D" />
<rect x="112" y="60" width="4" height="4" fill="#90625D" />
<rect x="36" y="64" width="4" height="4" fill="#90625D" />
<rect x="40" y="64" width="4" height="4" fill="#90625D" />
<rect x="44" y="64" width="4" height="4" fill="#90625D" />
<rect x="48" y="64" width="4" height="4" fill="#90625D" />
<rect x="52" y="64" width="4" height="4" fill="#90625D" />
<rect x="56" y="64" width="4" height="4" fill="#F3E5C2" />
<rect x="60" y="64" width="4" height="4" fill="#F3E5C2" />
<rect x="64" y="64" width="4" height="4" fill="#90625D" />
<rect x="68" y="64" width="4" height="4" fill="#90625D" />
<rect x="72" y="64" width="4" height="4" fill="#DCB98A" />
<rect x="76" y="64" width="4" height="4" fill="#DCB98A" />
<rect x="80" y="64" width="4" height="4" fill="#DCB98A" />
<rect x="84" y="64" width="4" height="4" fill="#DCB98A" />
<rect x="88" y="64" width="4" height="4" fill="#DCB98A" />
<rect x="92" y="64" width="4" height="4" fill="#F3E5C2" />
<rect x="96" y="64" width="4" height="4" fill="#F3E5C2" />
<rect x="100" y="64" width="4" height="4" fill="#90625D" />
<rect x="104" y="64" width="4" height="4" fill="#90625D" />
<rect x="108" y="64" width="4" height="4" fill="#F3E5C2" />
<rect x="112" y="64" width="4" height="4" fill="#F3E5C2" />
<rect x="116" y="64" width="4" height="4" fill="#90625D" />
<rect x="28" y="68" width="4" height="4" fill="#90625D" />
<rect x="32" y="68" width="4" height="4" fill="#90625D" />
<rect x="36" y="68" width="4" height="4" fill="#DCB98A" />
<rect x="40" y="68" width="4" height="4" fill="#DCB98A" />
<rect x="44" y="68" width="4" height="4" fill="#DCB98A" />
<rect x="48" y="68" width="4" height="4" fill="#F3E5C2" />
<rect x="52" y="68" width="4" height="4" fill="#90625D" />
<rect x="56" y="68" width="4" height="4" fill="#F3E5C2" />
<rect x="60" y="68" width="4" height="4" fill="#F3E5C2" />
<rect x="64" y="68" width="4" height="4" fill="#F3E5C2" />
<rect x="68" y="68" width="4" height="4" fill="#F3E5C2" />
<rect x="72" y="68" width="4" height="4" fill="#DCB98A" />
<rect x="76" y="68" width="4" height="4" fill="#DCB98A" />
<rect x="80" y="68" width="4" height="4" fill="#DCB98A" />
<rect x="84" y="68" width="4" height="4" fill="#DCB98A" />
<rect x="88" y="68" width="4" height="4" fill="#DCB98A" />
<rect x="92" y="68" width="4" height="4" fill="#F3E5C2" />
<rect x="96" y="68" width="4" height="4" fill="#F3E5C2" />
<rect x="100" y="68" width="4" height="4" fill="#F3E5C2" />
<rect x="104" y="68" width="4" height="4" fill="#90625D" />
<rect x="108" y="68" width="4" height="4" fill="#F3E5C2" />
<rect x="112" y="68" width="4" height="4" fill="#F3E5C2" />
<rect x="116" y="68" width="4" height="4" fill="#90625D" />
<rect x="24" y="72" width="4" height="4" fill="#90625D" />
<rect x="28" y="72" width="4" height="4" fill="#DCB98A" />
<rect x="32" y="72" width="4" height="4" fill="#DCB98A" />
<rect x="36" y="72" width="4" height="4" fill="#DCB98A" />
<rect x="40" y="72" width="4" height="4" fill="#DCB98A" />
<rect x="44" y="72" width="4" height="4" fill="#DCB98A" />
<rect x="48" y="72" width="4" height="4" fill="#F3E5C2" />
<rect x="52" y="72" width="4" height="4" fill="#90625D" />
<rect x="56" y="72" width="4" height="4" fill="#E8B5AC" />
<rect x="60" y="72" width="4" height="4" fill="#E8B5AC" />
<rect x="64" y="72" width="4" height="4" fill="#F3E5C2" />
<rect x="68" y="72" width="4" height="4" fill="#DCB98A" />
<rect x="72" y="72" width="4" height="4" fill="#DCB98A" />
<rect x="76" y="72" width="4" height="4" fill="#DCB98A" />
<rect x="80" y="72" width="4" height="4" fill="#754C60" />
<rect x="84" y="72" width="4" height="4" fill="#DCB98A" />
<rect x="88" y="72" width="4" height="4" fill="#F3E5C2" />
<rect x="92" y="72" width="4" height="4" fill="#F3E5C2" />
<rect x="96" y="72" width="4" height="4" fill="#754C60" />
<rect x="100" y="72" width="4" height="4" fill="#F3E5C2" />
<rect x="104" y="72" width="4" height="4" fill="#90625D" />
<rect x="108" y="72" width="4" height="4" fill="#E8B5AC" />
<rect x="112" y="72" width="4" height="4" fill="#E8B5AC" />
<rect x="116" y="72" width="4" height="4" fill="#90625D" />
<rect x="24" y="76" width="4" height="4" fill="#90625D" />
<rect x="28" y="76" width="4" height="4" fill="#DCB98A" />
<rect x="32" y="76" width="4" height="4" fill="#DCB98A" />
<rect x="36" y="76" width="4" height="4" fill="#DCB98A" />
<rect x="40" y="76" width="4" height="4" fill="#DCB98A" />
<rect x="44" y="76" width="4" height="4" fill="#F3E5C2" />
<rect x="48" y="76" width="4" height="4" fill="#F3E5C2" />
<rect x="52" y="76" width="4" height="4" fill="#F3E5C2" />
<rect x="56" y="76" width="4" height="4" fill="#90625D" />
<rect x="60" y="76" width="4" height="4" fill="#90625D" />
<rect x="64" y="76" width="4" height="4" fill="#90625D" />
<rect x="68" y="76" width="4" height="4" fill="#DCB98A" />
<rect x="72" y="76" width="4" height="4" fill="#DCB98A" />
<rect x="76" y="76" width="4" height="4" fill="#DCB98A" />
<rect x="80" y="76" width="4" height="4" fill="#754C60" />
<rect x="84" y="76" width="4" height="4" fill="#F3E5C2" />
<rect x="88" y="76" width="4" height="4" fill="#F3E5C2" />
<rect x="92" y="76" width="4" height="4" fill="#F3E5C2" />
<rect x="96" y="76" width="4" height="4" fill="#754C60" />
<rect x="100" y="76" width="4" height="4" fill="#F3E5C2" />
<rect x="104" y="76" width="4" height="4" fill="#F3E5C2" />
<rect x="108" y="76" width="4" height="4" fill="#90625D" />
<rect x="112" y="76" width="4" height="4" fill="#90625D" />
<rect x="20" y="80" width="4" height="4" fill="#90625D" />
<rect x="24" y="80" width="4" height="4" fill="#90625D" />
<rect x="28" y="80" width="4" height="4" fill="#DCB98A" />
<rect x="32" y="80" width="4" height="4" fill="#DCB98A" />
<rect x="36" y="80" width="4" height="4" fill="#F3E5C2" />
<rect x="40" y="80" width="4" height="4" fill="#F3E5C2" />
<rect x="44" y="80" width="4" height="4" fill="#F3E5C2" />
<rect x="48" y="80" width="4" height="4" fill="#F3E5C2" />
<rect x="52" y="80" width="4" height="4" fill="#F3E5C2" />
<rect x="56" y="80" width="4" height="4" fill="#F3E5C2" />
<rect x="60" y="80" width="4" height="4" fill="#F3E5C2" />
<rect x="64" y="80" width="4" height="4" fill="#F3E5C2" />
<rect x="68" y="80" width="4" height="4" fill="#F3E5C2" />
<rect x="72" y="80" width="4" height="4" fill="#F3E5C2" />
<rect x="76" y="80" width="4" height="4" fill="#F3E5C2" />
<rect x="80" y="80" width="4" height="4" fill="#F3E5C2" />
<rect x="84" y="80" width="4" height="4" fill="#F3E5C2" />
<rect x="88" y="80" width="4" height="4" fill="#F3E5C2" />
<rect x="92" y="80" width="4" height="4" fill="#F3E5C2" />
<rect x="96" y="80" width="4" height="4" fill="#F3E5C2" />
<rect x="100" y="80" width="4" height="4" fill="#F3E5C2" />
<rect x="104" y="80" width="4" height="4" fill="#F3E5C2" />
<rect x="108" y="80" width="4" height="4" fill="#90625D" />
<rect x="16" y="84" width="4" height="4" fill="#90625D" />
<rect x="20" y="84" width="4" height="4" fill="#DCB98A" />
<rect x="24" y="84" width="4" height="4" fill="#90625D" />
<rect x="28" y="84" width="4" height="4" fill="#F3E5C2" />
<rect x="32" y="84" width="4" height="4" fill="#F3E5C2" />
<rect x="36" y="84" width="4" height="4" fill="#F3E5C2" />
<rect x="40" y="84" width="4" height="4" fill="#F3E5C2" />
<rect x="44" y="84" width="4" height="4" fill="#F3E5C2" />
<rect x="48" y="84" width="4" height="4" fill="#F3E5C2" />
<rect x="52" y="84" width="4" height="4" fill="#DCB98A" />
<rect x="56" y="84" width="4" height="4" fill="#DCB98A" />
<rect x="60" y="84" width="4" height="4" fill="#F3E5C2" />
<rect x="64" y="84" width="4" height="4" fill="#F3E5C2" />
<rect x="68" y="84" width="4" height="4" fill="#F3E5C2" />
<rect x="72" y="84" width="4" height="4" fill="#F3E5C2" />
<rect x="76" y="84" width="4" height="4" fill="#F3E5C2" />
<rect x="80" y="84" width="4" height="4" fill="#F3E5C2" />
<rect x="84" y="84" width="4" height="4" fill="#E8B5AC" />
<rect x="88" y="84" width="4" height="4" fill="#E8B5AC" />
<rect x="92" y="84" width="4" height="4" fill="#E8B5AC" />
<rect x="96" y="84" width="4" height="4" fill="#E8B5AC" />
<rect x="100" y="84" width="4" height="4" fill="#E8B5AC" />
<rect x="104" y="84" width="4" height="4" fill="#E8B5AC" />
<rect x="108" y="84" width="4" height="4" fill="#90625D" />
<rect x="12" y="88" width="4" height="4" fill="#90625D" />
<rect x="16" y="88" width="4" height="4" fill="#DCB98A" />
<rect x="20" y="88" width="4" height="4" fill="#90625D" />
<rect x="24" y="88" width="4" height="4" fill="#90625D" />
<rect x="28" y="88" width="4" height="4" fill="#F3E5C2" />
<rect x="32" y="88" width="4" height="4" fill="#F3E5C2" />
<rect x="36" y="88" width="4" height="4" fill="#F3E5C2" />
<rect x="40" y="88" width="4" height="4" fill="#F3E5C2" />
<rect x="44" y="88" width="4" height="4" fill="#F3E5C2" />
<rect x="48" y="88" width="4" height="4" fill="#DCB98A" />
<rect x="52" y="88" width="4" height="4" fill="#DCB98A" />
<rect x="56" y="88" width="4" height="4" fill="#DCB98A" />
<rect x="60" y="88" width="4" height="4" fill="#DCB98A" />
<rect x="64" y="88" width="4" height="4" fill="#F3E5C2" />
<rect x="68" y="88" width="4" height="4" fill="#90625D" />
<rect x="72" y="88" width="4" height="4" fill="#F3E5C2" />
<rect x="76" y="88" width="4" height="4" fill="#F3E5C2" />
<rect x="80" y="88" width="4" height="4" fill="#E8B5AC" />
<rect x="84" y="88" width="4" height="4" fill="#E8B5AC" />
<rect x="88" y="88" width="4" height="4" fill="#D99A9A" />
<rect x="92" y="88" width="4" height="4" fill="#E8B5AC" />
<rect x="96" y="88" width="4" height="4" fill="#E8B5AC" />
<rect x="100" y="88" width="4" height="4" fill="#D99A9A" />
<rect x="104" y="88" width="4" height="4" fill="#E8B5AC" />
<rect x="108" y="88" width="4" height="4" fill="#90625D" />
<rect x="12" y="92" width="4" height="4" fill="#90625D" />
<rect x="16" y="92" width="4" height="4" fill="#90625D" />
<rect x="24" y="92" width="4" height="4" fill="#90625D" />
<rect x="28" y="92" width="4" height="4" fill="#F3E5C2" />
<rect x="32" y="92" width="4" height="4" fill="#F3E5C2" />
<rect x="36" y="92" width="4" height="4" fill="#F3E5C2" />
<rect x="40" y="92" width="4" height="4" fill="#F3E5C2" />
<rect x="44" y="92" width="4" height="4" fill="#F3E5C2" />
<rect x="48" y="92" width="4" height="4" fill="#F3E5C2" />
<rect x="52" y="92" width="4" height="4" fill="#DCB98A" />
<rect x="56" y="92" width="4" height="4" fill="#DCB98A" />
<rect x="60" y="92" width="4" height="4" fill="#F3E5C2" />
<rect x="64" y="92" width="4" height="4" fill="#F3E5C2" />
<rect x="68" y="92" width="4" height="4" fill="#F3E5C2" />
<rect x="72" y="92" width="4" height="4" fill="#90625D" />
<rect x="76" y="92" width="4" height="4" fill="#F3E5C2" />
<rect x="80" y="92" width="4" height="4" fill="#E8B5AC" />
<rect x="84" y="92" width="4" height="4" fill="#E8B5AC" />
<rect x="88" y="92" width="4" height="4" fill="#E8B5AC" />
<rect x="92" y="92" width="4" height="4" fill="#E8B5AC" />
<rect x="96" y="92" width="4" height="4" fill="#E8B5AC" />
<rect x="100" y="92" width="4" height="4" fill="#E8B5AC" />
<rect x="104" y="92" width="4" height="4" fill="#E8B5AC" />
<rect x="108" y="92" width="4" height="4" fill="#90625D" />
<rect x="24" y="96" width="4" height="4" fill="#90625D" />
<rect x="28" y="96" width="4" height="4" fill="#DCB98A" />
<rect x="32" y="96" width="4" height="4" fill="#DCB98A" />
<rect x="36" y="96" width="4" height="4" fill="#DCB98A" />
<rect x="40" y="96" width="4" height="4" fill="#DCB98A" />
<rect x="44" y="96" width="4" height="4" fill="#F3E5C2" />
<rect x="48" y="96" width="4" height="4" fill="#F3E5C2" />
<rect x="52" y="96" width="4" height="4" fill="#F3E5C2" />
<rect x="56" y="96" width="4" height="4" fill="#F3E5C2" />
<rect x="60" y="96" width="4" height="4" fill="#F3E5C2" />
<rect x="64" y="96" width="4" height="4" fill="#F3E5C2" />
<rect x="68" y="96" width="4" height="4" fill="#F3E5C2" />
<rect x="72" y="96" width="4" height="4" fill="#DCB98A" />
<rect x="76" y="96" width="4" height="4" fill="#90625D" />
<rect x="80" y="96" width="4" height="4" fill="#90625D" />
<rect x="84" y="96" width="4" height="4" fill="#90625D" />
<rect x="88" y="96" width="4" height="4" fill="#90625D" />
<rect x="92" y="96" width="4" height="4" fill="#90625D" />
<rect x="96" y="96" width="4" height="4" fill="#90625D" />
<rect x="100" y="96" width="4" height="4" fill="#90625D" />
<rect x="104" y="96" width="4" height="4" fill="#90625D" />
<rect x="20" y="100" width="4" height="4" fill="#90625D" />
<rect x="24" y="100" width="4" height="4" fill="#DCB98A" />
<rect x="28" y="100" width="4" height="4" fill="#DCB98A" />
<rect x="32" y="100" width="4" height="4" fill="#DCB98A" />
<rect x="36" y="100" width="4" height="4" fill="#DCB98A" />
<rect x="40" y="100" width="4" height="4" fill="#DCB98A" />
<rect x="44" y="100" width="4" height="4" fill="#DCB98A" />
<rect x="48" y="100" width="4" height="4" fill="#DCB98A" />
<rect x="52" y="100" width="4" height="4" fill="#DCB98A" />
<rect x="56" y="100" width="4" height="4" fill="#DCB98A" />
<rect x="60" y="100" width="4" height="4" fill="#DCB98A" />
<rect x="64" y="100" width="4" height="4" fill="#DCB98A" />
<rect x="68" y="100" width="4" height="4" fill="#DCB98A" />
<rect x="72" y="100" width="4" height="4" fill="#DCB98A" />
<rect x="76" y="100" width="4" height="4" fill="#DCB98A" />
<rect x="80" y="100" width="4" height="4" fill="#90625D" />
<rect x="16" y="104" width="4" height="4" fill="#90625D" />
<rect x="20" y="104" width="4" height="4" fill="#DCB98A" />
<rect x="24" y="104" width="4" height="4" fill="#DCB98A" />
<rect x="28" y="104" width="4" height="4" fill="#DCB98A" />
<rect x="32" y="104" width="4" height="4" fill="#90625D" />
<rect x="36" y="104" width="4" height="4" fill="#90625D" />
<rect x="40" y="104" width="4" height="4" fill="#90625D" />
<rect x="44" y="104" width="4" height="4" fill="#90625D" />
<rect x="48" y="104" width="4" height="4" fill="#90625D" />
<rect x="52" y="104" width="4" height="4" fill="#90625D" />
<rect x="56" y="104" width="4" height="4" fill="#90625D" />
<rect x="60" y="104" width="4" height="4" fill="#90625D" />
<rect x="64" y="104" width="4" height="4" fill="#90625D" />
<rect x="68" y="104" width="4" height="4" fill="#90625D" />
<rect x="72" y="104" width="4" height="4" fill="#DCB98A" />
<rect x="76" y="104" width="4" height="4" fill="#DCB98A" />
<rect x="80" y="104" width="4" height="4" fill="#DCB98A" />
<rect x="84" y="104" width="4" height="4" fill="#90625D" />
<rect x="88" y="104" width="4" height="4" fill="#504086" opacity="0.117647" />
<rect x="92" y="104" width="4" height="4" fill="#504086" opacity="0.117647" />
<rect x="16" y="108" width="4" height="4" fill="#90625D" />
<rect x="20" y="108" width="4" height="4" fill="#DCB98A" />
<rect x="24" y="108" width="4" height="4" fill="#DCB98A" />
<rect x="28" y="108" width="4" height="4" fill="#90625D" />
<rect x="32" y="108" width="4" height="4" fill="#504086" opacity="0.117647" />
<rect x="36" y="108" width="4" height="4" fill="#504086" opacity="0.117647" />
<rect x="40" y="108" width="4" height="4" fill="#90625D" />
<rect x="44" y="108" width="4" height="4" fill="#BE9F8A" />
<rect x="48" y="108" width="4" height="4" fill="#BE9F8A" />
<rect x="52" y="108" width="4" height="4" fill="#90625D" />
<rect x="56" y="108" width="4" height="4" fill="#504086" opacity="0.117647" />
<rect x="60" y="108" width="4" height="4" fill="#90625D" />
<rect x="64" y="108" width="4" height="4" fill="#BE9F8A" />
<rect x="68" y="108" width="4" height="4" fill="#BE9F8A" />
<rect x="72" y="108" width="4" height="4" fill="#90625D" />
<rect x="76" y="108" width="4" height="4" fill="#DCB98A" />
<rect x="80" y="108" width="4" height="4" fill="#DCB98A" />
<rect x="84" y="108" width="4" height="4" fill="#90625D" />
<rect x="88" y="108" width="4" height="4" fill="#504086" opacity="0.117647" />
<rect x="92" y="108" width="4" height="4" fill="#504086" opacity="0.117647" />
<rect x="96" y="108" width="4" height="4" fill="#504086" opacity="0.117647" />
<rect x="16" y="112" width="4" height="4" fill="#504086" opacity="0.117647" />
<rect x="20" y="112" width="4" height="4" fill="#90625D" />
<rect x="24" y="112" width="4" height="4" fill="#90625D" />
<rect x="28" y="112" width="4" height="4" fill="#504086" opacity="0.117647" />
<rect x="32" y="112" width="4" height="4" fill="#504086" opacity="0.117647" />
<rect x="36" y="112" width="4" height="4" fill="#504086" opacity="0.117647" />
<rect x="40" y="112" width="4" height="4" fill="#504086" opacity="0.117647" />
<rect x="44" y="112" width="4" height="4" fill="#90625D" />
<rect x="48" y="112" width="4" height="4" fill="#90625D" />
<rect x="52" y="112" width="4" height="4" fill="#504086" opacity="0.117647" />
<rect x="56" y="112" width="4" height="4" fill="#504086" opacity="0.117647" />
<rect x="60" y="112" width="4" height="4" fill="#504086" opacity="0.117647" />
<rect x="64" y="112" width="4" height="4" fill="#90625D" />
<rect x="68" y="112" width="4" height="4" fill="#90625D" />
<rect x="72" y="112" width="4" height="4" fill="#504086" opacity="0.117647" />
<rect x="76" y="112" width="4" height="4" fill="#90625D" />
<rect x="80" y="112" width="4" height="4" fill="#90625D" />
<rect x="84" y="112" width="4" height="4" fill="#504086" opacity="0.117647" />
<rect x="88" y="112" width="4" height="4" fill="#504086" opacity="0.117647" />
<rect x="92" y="112" width="4" height="4" fill="#504086" opacity="0.117647" />
<rect x="96" y="112" width="4" height="4" fill="#504086" opacity="0.117647" />
<rect x="20" y="116" width="4" height="4" fill="#504086" opacity="0.117647" />
<rect x="24" y="116" width="4" height="4" fill="#504086" opacity="0.117647" />
<rect x="28" y="116" width="4" height="4" fill="#504086" opacity="0.117647" />
<rect x="32" y="116" width="4" height="4" fill="#504086" opacity="0.117647" />
<rect x="36" y="116" width="4" height="4" fill="#504086" opacity="0.117647" />
<rect x="40" y="116" width="4" height="4" fill="#504086" opacity="0.117647" />
<rect x="44" y="116" width="4" height="4" fill="#504086" opacity="0.117647" />
<rect x="48" y="116" width="4" height="4" fill="#504086" opacity="0.117647" />
<rect x="52" y="116" width="4" height="4" fill="#504086" opacity="0.117647" />
<rect x="56" y="116" width="4" height="4" fill="#504086" opacity="0.117647" />
<rect x="60" y="116" width="4" height="4" fill="#504086" opacity="0.117647" />
<rect x="64" y="116" width="4" height="4" fill="#504086" opacity="0.117647" />
<rect x="68" y="116" width="4" height="4" fill="#504086" opacity="0.117647" />
<rect x="72" y="116" width="4" height="4" fill="#504086" opacity="0.117647" />
<rect x="76" y="116" width="4" height="4" fill="#504086" opacity="0.117647" />
<rect x="80" y="116" width="4" height="4" fill="#504086" opacity="0.117647" />
<rect x="84" y="116" width="4" height="4" fill="#504086" opacity="0.117647" />
<rect x="88" y="116" width="4" height="4" fill="#504086" opacity="0.117647" />
<rect x="92" y="116" width="4" height="4" fill="#504086" opacity="0.117647" />
</svg>